<svg width="677.6" height="438.90000000000003" xmlns="http://www.w3.org/2000/svg" xmlns:xlink="http://www.w3.org/1999/xlink"><line x1="260.5" y1="7.0" x2="37.25" y2="31.0" style="stroke:black; stroke-width:1px;" />
<line x1="37.25" y1="38.0" x2="20.0" y2="62.0" style="stroke:black; stroke-width:1px;" />
<line x1="20.0" y1="69.0" x2="20.0" y2="93.0" style="stroke:black; stroke-width:1px;" />
<line x1="37.25" y1="38.0" x2="54.5" y2="62.0" style="stroke:black; stroke-width:1px;" />
<line x1="260.5" y1="7.0" x2="118.0" y2="31.0" style="stroke:black; stroke-width:1px;" />
<line x1="118.0" y1="38.0" x2="74.5" y2="62.0" style="stroke:black; stroke-width:1px;" />
<line x1="118.0" y1="38.0" x2="93.5" y2="62.0" style="stroke:black; stroke-width:1px;" />
<line x1="118.0" y1="38.0" x2="127.0" y2="62.0" style="stroke:black; stroke-width:1px;" />
<line x1="127.0" y1="69.0" x2="127.0" y2="93.0" style="stroke:black; stroke-width:1px;" />
<line x1="118.0" y1="38.0" x2="161.5" y2="62.0" style="stroke:black; stroke-width:1px;" />
<line x1="260.5" y1="7.0" x2="225.0" y2="31.0" style="stroke:black; stroke-width:1px;" />
<line x1="225.0" y1="38.0" x2="181.5" y2="62.0" style="stroke:black; stroke-width:1px;" />
<line x1="225.0" y1="38.0" x2="200.5" y2="62.0" style="stroke:black; stroke-width:1px;" />
<line x1="225.0" y1="38.0" x2="234.0" y2="62.0" style="stroke:black; stroke-width:1px;" />
<line x1="234.0" y1="69.0" x2="234.0" y2="93.0" style="stroke:black; stroke-width:1px;" />
<line x1="225.0" y1="38.0" x2="268.5" y2="62.0" style="stroke:black; stroke-width:1px;" />
<line x1="260.5" y1="7.0" x2="320.25" y2="31.0" style="stroke:black; stroke-width:1px;" />
<line x1="320.25" y1="38.0" x2="303.0" y2="62.0" style="stroke:black; stroke-width:1px;" />
<line x1="303.0" y1="69.0" x2="269.5" y2="93.0" style="stroke:black; stroke-width:1px;" />
<line x1="269.5" y1="100.0" x2="269.5" y2="124.0" style="stroke:black; stroke-width:1px;" />
<line x1="303.0" y1="69.0" x2="303.0" y2="93.0" style="stroke:black; stroke-width:1px;" />
<line x1="303.0" y1="69.0" x2="336.5" y2="93.0" style="stroke:black; stroke-width:1px;" />
<line x1="336.5" y1="100.0" x2="304.5" y2="124.0" style="stroke:black; stroke-width:1px;" />
<line x1="304.5" y1="131.0" x2="304.5" y2="155.0" style="stroke:black; stroke-width:1px;" />
<line x1="336.5" y1="100.0" x2="336.5" y2="124.0" style="stroke:black; stroke-width:1px;" />
<line x1="336.5" y1="100.0" x2="368.5" y2="124.0" style="stroke:black; stroke-width:1px;" />
<line x1="368.5" y1="131.0" x2="368.5" y2="155.0" style="stroke:black; stroke-width:1px;" />
<line x1="320.25" y1="38.0" x2="337.5" y2="62.0" style="stroke:black; stroke-width:1px;" />
<line x1="260.5" y1="7.0" x2="483.75" y2="31.0" style="stroke:black; stroke-width:1px;" />
<line x1="483.75" y1="38.0" x2="466.5" y2="62.0" style="stroke:black; stroke-width:1px;" />
<line x1="466.5" y1="69.0" x2="434.5" y2="93.0" style="stroke:black; stroke-width:1px;" />
<line x1="434.5" y1="100.0" x2="403.5" y2="124.0" style="stroke:black; stroke-width:1px;" />
<line x1="434.5" y1="100.0" x2="434.5" y2="124.0" style="stroke:black; stroke-width:1px;" />
<line x1="434.5" y1="131.0" x2="401.0" y2="155.0" style="stroke:black; stroke-width:1px;" />
<line x1="401.0" y1="162.0" x2="401.0" y2="186.0" style="stroke:black; stroke-width:1px;" />
<line x1="434.5" y1="131.0" x2="434.5" y2="155.0" style="stroke:black; stroke-width:1px;" />
<line x1="434.5" y1="131.0" x2="468.0" y2="155.0" style="stroke:black; stroke-width:1px;" />
<line x1="468.0" y1="162.0" x2="468.0" y2="186.0" style="stroke:black; stroke-width:1px;" />
<line x1="434.5" y1="100.0" x2="465.5" y2="124.0" style="stroke:black; stroke-width:1px;" />
<line x1="466.5" y1="69.0" x2="466.5" y2="93.0" style="stroke:black; stroke-width:1px;" />
<line x1="466.5" y1="69.0" x2="498.5" y2="93.0" style="stroke:black; stroke-width:1px;" />
<line x1="498.5" y1="100.0" x2="498.5" y2="124.0" style="stroke:black; stroke-width:1px;" />
<line x1="483.75" y1="38.0" x2="501.0" y2="62.0" style="stroke:black; stroke-width:1px;" />
<rect x="176.0" y="62.0" width="11.0" height="14.0" style="fill:orange; stroke:rgb(0,0,0);" rx="1"/>
<text x="178" y="71" style="font-family:sans-serif;font-size:10px;">
b
</text>
<rect x="330.0" y="62.0" width="15.0" height="14.0" style="fill:orange; stroke:rgb(0,0,0);" rx="1"/>
<text x="332" y="71" style="font-family:sans-serif;font-size:10px;">
\n
</text>
<rect x="188.5" y="31.0" width="73.0" height="14.0" style="fill:orange; stroke:rgb(0,0,0);" rx="1"/>
<text x="190" y="40" style="font-family:sans-serif;font-size:10px;">
statement:2
</text>
<rect x="87.0" y="62.0" width="13.0" height="14.0" style="fill:orange; stroke:rgb(0,0,0);" rx="1"/>
<text x="89" y="71" style="font-family:sans-serif;font-size:10px;">
=
</text>
<rect x="462.5" y="186.0" width="11.0" height="14.0" style="fill:orange; stroke:rgb(0,0,0);" rx="1"/>
<text x="464" y="195" style="font-family:sans-serif;font-size:10px;">
2
</text>
<rect x="81.5" y="31.0" width="73.0" height="14.0" style="fill:orange; stroke:rgb(0,0,0);" rx="1"/>
<text x="83" y="40" style="font-family:sans-serif;font-size:10px;">
statement:2
</text>
<rect x="0.0" y="62.0" width="40.0" height="14.0" style="fill:orange; stroke:rgb(0,0,0);" rx="1"/>
<text x="2" y="71" style="font-family:sans-serif;font-size:10px;">
expr:3
</text>
<rect x="194.0" y="62.0" width="13.0" height="14.0" style="fill:orange; stroke:rgb(0,0,0);" rx="1"/>
<text x="196" y="71" style="font-family:sans-serif;font-size:10px;">
=
</text>
<rect x="428.0" y="155.0" width="13.0" height="14.0" style="fill:orange; stroke:rgb(0,0,0);" rx="1"/>
<text x="430" y="164" style="font-family:sans-serif;font-size:10px;">
+
</text>
<rect x="316.5" y="93.0" width="40.0" height="14.0" style="fill:orange; stroke:rgb(0,0,0);" rx="1"/>
<text x="318" y="102" style="font-family:sans-serif;font-size:10px;">
expr:1
</text>
<rect x="296.5" y="93.0" width="13.0" height="14.0" style="fill:orange; stroke:rgb(0,0,0);" rx="1"/>
<text x="298" y="102" style="font-family:sans-serif;font-size:10px;">
+
</text>
<rect x="0.75" y="31.0" width="73.0" height="14.0" style="fill:orange; stroke:rgb(0,0,0);" rx="1"/>
<text x="2" y="40" style="font-family:sans-serif;font-size:10px;">
statement:1
</text>
<rect x="283.0" y="62.0" width="40.0" height="14.0" style="fill:orange; stroke:rgb(0,0,0);" rx="1"/>
<text x="285" y="71" style="font-family:sans-serif;font-size:10px;">
expr:2
</text>
<rect x="363.0" y="155.0" width="11.0" height="14.0" style="fill:orange; stroke:rgb(0,0,0);" rx="1"/>
<text x="365" y="164" style="font-family:sans-serif;font-size:10px;">
2
</text>
<rect x="228.5" y="93.0" width="11.0" height="14.0" style="fill:orange; stroke:rgb(0,0,0);" rx="1"/>
<text x="230" y="102" style="font-family:sans-serif;font-size:10px;">
6
</text>
<rect x="7.5" y="93.0" width="25.0" height="14.0" style="fill:orange; stroke:rgb(0,0,0);" rx="1"/>
<text x="9" y="102" style="font-family:sans-serif;font-size:10px;">
193
</text>
<rect x="299.0" y="155.0" width="11.0" height="14.0" style="fill:orange; stroke:rgb(0,0,0);" rx="1"/>
<text x="301" y="164" style="font-family:sans-serif;font-size:10px;">
b
</text>
<rect x="264.0" y="124.0" width="11.0" height="14.0" style="fill:orange; stroke:rgb(0,0,0);" rx="1"/>
<text x="266" y="133" style="font-family:sans-serif;font-size:10px;">
a
</text>
<rect x="399.5" y="124.0" width="8.0" height="14.0" style="fill:orange; stroke:rgb(0,0,0);" rx="1"/>
<text x="401" y="133" style="font-family:sans-serif;font-size:10px;">
(
</text>
<rect x="414.5" y="93.0" width="40.0" height="14.0" style="fill:orange; stroke:rgb(0,0,0);" rx="1"/>
<text x="416" y="102" style="font-family:sans-serif;font-size:10px;">
expr:5
</text>
<rect x="69.0" y="62.0" width="11.0" height="14.0" style="fill:orange; stroke:rgb(0,0,0);" rx="1"/>
<text x="71" y="71" style="font-family:sans-serif;font-size:10px;">
a
</text>
<rect x="284.5" y="124.0" width="40.0" height="14.0" style="fill:orange; stroke:rgb(0,0,0);" rx="1"/>
<text x="286" y="133" style="font-family:sans-serif;font-size:10px;">
expr:4
</text>
<rect x="249.5" y="93.0" width="40.0" height="14.0" style="fill:orange; stroke:rgb(0,0,0);" rx="1"/>
<text x="251" y="102" style="font-family:sans-serif;font-size:10px;">
expr:4
</text>
<rect x="446.5" y="62.0" width="40.0" height="14.0" style="fill:orange; stroke:rgb(0,0,0);" rx="1"/>
<text x="448" y="71" style="font-family:sans-serif;font-size:10px;">
expr:1
</text>
<rect x="461.5" y="124.0" width="8.0" height="14.0" style="fill:orange; stroke:rgb(0,0,0);" rx="1"/>
<text x="463" y="133" style="font-family:sans-serif;font-size:10px;">
)
</text>
<rect x="461.5" y="93.0" width="10.0" height="14.0" style="fill:orange; stroke:rgb(0,0,0);" rx="1"/>
<text x="463" y="102" style="font-family:sans-serif;font-size:10px;">
*
</text>
<rect x="240.0" y="0.0" width="41.0" height="14.0" style="fill:orange; stroke:rgb(0,0,0);" rx="1"/>
<text x="242" y="9" style="font-family:sans-serif;font-size:10px;">
prog:1
</text>
<rect x="47.0" y="62.0" width="15.0" height="14.0" style="fill:orange; stroke:rgb(0,0,0);" rx="1"/>
<text x="49" y="71" style="font-family:sans-serif;font-size:10px;">
\n
</text>
<rect x="381.0" y="155.0" width="40.0" height="14.0" style="fill:orange; stroke:rgb(0,0,0);" rx="1"/>
<text x="383" y="164" style="font-family:sans-serif;font-size:10px;">
expr:3
</text>
<rect x="214.0" y="62.0" width="40.0" height="14.0" style="fill:orange; stroke:rgb(0,0,0);" rx="1"/>
<text x="216" y="71" style="font-family:sans-serif;font-size:10px;">
expr:3
</text>
<rect x="493.0" y="124.0" width="11.0" height="14.0" style="fill:orange; stroke:rgb(0,0,0);" rx="1"/>
<text x="495" y="133" style="font-family:sans-serif;font-size:10px;">
3
</text>
<rect x="447.25" y="31.0" width="73.0" height="14.0" style="fill:orange; stroke:rgb(0,0,0);" rx="1"/>
<text x="449" y="40" style="font-family:sans-serif;font-size:10px;">
statement:1
</text>
<rect x="121.5" y="93.0" width="11.0" height="14.0" style="fill:orange; stroke:rgb(0,0,0);" rx="1"/>
<text x="123" y="102" style="font-family:sans-serif;font-size:10px;">
5
</text>
<rect x="414.5" y="124.0" width="40.0" height="14.0" style="fill:orange; stroke:rgb(0,0,0);" rx="1"/>
<text x="416" y="133" style="font-family:sans-serif;font-size:10px;">
expr:2
</text>
<rect x="283.75" y="31.0" width="73.0" height="14.0" style="fill:orange; stroke:rgb(0,0,0);" rx="1"/>
<text x="285" y="40" style="font-family:sans-serif;font-size:10px;">
statement:1
</text>
<rect x="154.0" y="62.0" width="15.0" height="14.0" style="fill:orange; stroke:rgb(0,0,0);" rx="1"/>
<text x="156" y="71" style="font-family:sans-serif;font-size:10px;">
\n
</text>
<rect x="448.0" y="155.0" width="40.0" height="14.0" style="fill:orange; stroke:rgb(0,0,0);" rx="1"/>
<text x="450" y="164" style="font-family:sans-serif;font-size:10px;">
expr:3
</text>
<rect x="395.5" y="186.0" width="11.0" height="14.0" style="fill:orange; stroke:rgb(0,0,0);" rx="1"/>
<text x="397" y="195" style="font-family:sans-serif;font-size:10px;">
1
</text>
<rect x="261.0" y="62.0" width="15.0" height="14.0" style="fill:orange; stroke:rgb(0,0,0);" rx="1"/>
<text x="263" y="71" style="font-family:sans-serif;font-size:10px;">
\n
</text>
<rect x="348.5" y="124.0" width="40.0" height="14.0" style="fill:orange; stroke:rgb(0,0,0);" rx="1"/>
<text x="350" y="133" style="font-family:sans-serif;font-size:10px;">
expr:3
</text>
<rect x="493.5" y="62.0" width="15.0" height="14.0" style="fill:orange; stroke:rgb(0,0,0);" rx="1"/>
<text x="495" y="71" style="font-family:sans-serif;font-size:10px;">
\n
</text>
<rect x="107.0" y="62.0" width="40.0" height="14.0" style="fill:orange; stroke:rgb(0,0,0);" rx="1"/>
<text x="109" y="71" style="font-family:sans-serif;font-size:10px;">
expr:3
</text>
<rect x="331.5" y="124.0" width="10.0" height="14.0" style="fill:orange; stroke:rgb(0,0,0);" rx="1"/>
<text x="333" y="133" style="font-family:sans-serif;font-size:10px;">
*
</text>
<rect x="478.5" y="93.0" width="40.0" height="14.0" style="fill:orange; stroke:rgb(0,0,0);" rx="1"/>
<text x="480" y="102" style="font-family:sans-serif;font-size:10px;">
expr:3
</text>
</svg>